# Blender v3.3.1 OBJ File: 'Castle5_Final.blend'
# www.blender.org
mtllib Item3.mtl
o Item3_Cube.174
v 0.025105 0.137595 -0.493823
v 0.025105 0.137595 0.516146
v 0.032812 0.497367 -0.493823
v 0.032812 0.497367 0.516146
v -0.017899 0.137595 -0.493823
v -0.017899 0.137595 0.516146
v -0.022184 0.497367 -0.493823
v -0.022184 0.497367 0.516146
v 0.025105 0.226634 0.516146
v 0.025105 0.226634 -0.493823
v 0.025105 0.405312 0.516146
v 0.025105 0.405312 -0.493823
v -0.023684 0.405312 0.516146
v -0.023685 0.405312 -0.493823
v -0.020792 0.226634 -0.493823
v -0.020791 0.226634 0.516146
v 0.016894 0.000000 -0.332156
v -0.071133 0.000000 -0.327280
v 0.016894 0.000000 -0.446624
v -0.055512 0.000000 -0.463367
v 0.004646 0.578807 -0.323791
v -0.040011 0.578807 -0.323791
v -0.040011 0.578807 -0.445236
v 0.004646 0.578807 -0.445236
v 0.001452 0.000000 -0.063530
v -0.066927 0.000000 -0.063838
v 0.001452 0.000000 -0.201900
v -0.066927 0.000000 -0.198618
v 0.011285 0.573196 -0.073380
v -0.033367 0.573812 -0.073656
v -0.032726 0.565721 -0.195446
v 0.011927 0.565105 -0.195170
v 0.037791 0.487554 0.148165
v 0.036074 0.487554 -0.219817
v -0.009501 0.487554 0.148165
v -0.009501 0.487554 -0.219817
v 0.029157 0.395499 -0.219817
v 0.030874 0.395499 0.148165
v -0.010848 0.395499 0.148165
v -0.010848 0.395499 -0.219817
v 0.024644 0.122233 -0.233083
v -0.017967 0.122233 -0.233083
v 0.024644 0.211272 -0.233083
v -0.020860 0.211272 -0.233083
v -0.044414 0.047166 -0.446624
v -0.011229 0.023828 -0.075110
v -0.011216 0.025390 -0.189949
v -0.044427 0.036384 -0.331720
v -0.055874 0.032324 -0.189949
v 0.000231 0.029304 -0.331720
v 0.000244 0.030868 -0.446624
v -0.055887 0.037961 -0.075110
v -0.027416 0.000000 -0.063345
v -0.039009 0.035295 -0.075110
v -0.030110 0.036384 -0.331720
v -0.013597 0.000000 -0.321952
v -0.032384 0.034411 -0.446624
v -0.023428 0.000000 -0.463221
v -0.039684 0.022881 -0.189949
v -0.036174 0.000000 -0.203351
v -0.045694 0.316943 -0.198287
v -0.045722 0.318216 -0.081137
v -0.001090 0.310450 -0.081175
v -0.001101 0.309184 -0.198287
v 0.004646 0.601282 -0.387054
v -0.040011 0.601208 -0.390455
v -0.032735 0.592201 -0.134822
v 0.011911 0.591664 -0.133354
v 0.017239 0.000000 0.177406
v -0.070788 0.000000 0.182282
v 0.017239 0.000000 0.062938
v -0.055166 0.000000 0.046195
v 0.004991 0.633880 0.176515
v -0.039666 0.633880 0.176515
v -0.039666 0.633880 0.055070
v 0.004991 0.633880 0.055070
v 0.001797 0.000000 0.423110
v -0.066582 0.000000 0.422802
v 0.001797 0.000000 0.284741
v -0.066582 0.000000 0.288023
v -0.006424 0.617269 0.429118
v -0.051082 0.617269 0.429118
v -0.051082 0.583523 0.305512
v -0.006424 0.583523 0.305512
v -0.044069 0.047166 0.062938
v -0.010884 0.023828 0.411530
v -0.010871 0.025390 0.296691
v -0.044081 0.036384 0.177842
v -0.055529 0.032324 0.296691
v 0.000576 0.029304 0.177842
v 0.000589 0.030868 0.062938
v -0.055541 0.037961 0.411530
v -0.027071 0.000000 0.423296
v -0.038664 0.035295 0.411530
v -0.029765 0.036384 0.177842
v -0.013252 0.000000 0.187610
v -0.032039 0.034411 0.062938
v -0.023083 0.000000 0.046341
v -0.039339 0.022881 0.296691
v -0.035829 0.000000 0.283289
v -0.053953 0.314899 0.306646
v -0.053981 0.316172 0.423797
v -0.009349 0.308407 0.423759
v -0.009360 0.307140 0.306646
v 0.004991 0.656356 0.113252
v -0.039666 0.656282 0.109851
v -0.051082 0.617061 0.365245
v -0.006424 0.617484 0.366361
v 0.024955 0.222136 0.022113
v 0.024962 0.133296 0.043955
v -0.017899 0.133296 0.043955
v -0.020792 0.222136 0.022113
vt 0.596834 0.717423
vt 0.596834 0.717423
vt 0.596834 0.717423
vt 0.596834 0.717423
vt 0.596834 0.717423
vt 0.596834 0.717423
vt 0.596834 0.717423
vt 0.596834 0.717423
vt 0.720992 0.968535
vt 0.720992 0.968535
vt 0.720992 0.968535
vt 0.720992 0.968535
vt 0.596833 0.717423
vt 0.596833 0.717423
vt 0.596833 0.717423
vt 0.596833 0.717423
vt 0.723949 0.962354
vt 0.723949 0.962354
vt 0.723949 0.962354
vt 0.723949 0.962354
vt 0.596833 0.717423
vt 0.596833 0.717423
vt 0.596833 0.717423
vt 0.596833 0.717423
vt 0.596833 0.717423
vt 0.596833 0.717423
vt 0.966878 0.967611
vt 0.966878 0.967611
vt 0.966878 0.967611
vt 0.966878 0.967611
vt 0.968678 0.968118
vt 0.968678 0.968118
vt 0.967372 0.967438
vt 0.967372 0.967438
vt 0.722519 0.973050
vt 0.722519 0.973050
vt 0.722519 0.973050
vt 0.722519 0.973050
vt 0.790510 0.344566
vt 0.790510 0.344566
vt 0.790510 0.344566
vt 0.790510 0.344566
vt 0.790510 0.344566
vt 0.720326 0.970051
vt 0.720326 0.970051
vt 0.720326 0.970051
vt 0.720326 0.970051
vt 0.720326 0.970051
vt 0.720326 0.970051
vt 0.722519 0.967191
vt 0.722519 0.967191
vt 0.722519 0.967191
vt 0.722519 0.967191
vt 0.718613 0.969144
vt 0.718613 0.969144
vt 0.718613 0.969144
vt 0.718613 0.969144
vt 0.722519 0.969144
vt 0.722519 0.969144
vt 0.722519 0.969144
vt 0.722519 0.969144
vt 0.720326 0.970051
vt 0.720326 0.970051
vt 0.720326 0.970051
vt 0.720326 0.970051
vt 0.720326 0.970051
vt 0.720326 0.970051
vt 0.722519 0.967191
vt 0.722519 0.967191
vt 0.722519 0.967191
vt 0.722519 0.967191
vt 0.596834 0.717423
vt 0.596834 0.717423
vt 0.596834 0.717423
vt 0.596834 0.717423
vt 0.720992 0.968535
vt 0.720992 0.968535
vt 0.720992 0.968535
vt 0.720992 0.968535
vt 0.596834 0.717423
vt 0.596834 0.717423
vt 0.596834 0.717423
vt 0.596834 0.717423
vt 0.596833 0.717423
vt 0.596833 0.717423
vt 0.596833 0.717423
vt 0.723949 0.962354
vt 0.723949 0.962354
vt 0.723949 0.962354
vt 0.723949 0.962354
vt 0.722519 0.969144
vt 0.722519 0.969144
vt 0.722519 0.969144
vt 0.722519 0.969144
vt 0.790510 0.344566
vt 0.790510 0.344566
vt 0.790510 0.344566
vt 0.790510 0.344566
vt 0.790510 0.344566
vt 0.790510 0.344566
vt 0.790510 0.344566
vt 0.790510 0.344566
vt 0.790510 0.344566
vt 0.790510 0.344566
vt 0.790510 0.344566
vt 0.790510 0.344566
vt 0.790510 0.344566
vt 0.790510 0.344566
vt 0.790510 0.344566
vt 0.722519 0.969144
vt 0.722519 0.969144
vt 0.790510 0.344566
vt 0.790510 0.344566
vt 0.790510 0.344566
vt 0.790510 0.344566
vt 0.790510 0.344566
vt 0.790510 0.344566
vt 0.790510 0.344566
vt 0.720326 0.970051
vt 0.720326 0.970051
vt 0.720326 0.970051
vt 0.720326 0.970051
vt 0.722519 0.969144
vt 0.722519 0.969144
vt 0.722519 0.969144
vt 0.722519 0.969144
vt 0.722519 0.969144
vt 0.722519 0.969144
vt 0.722519 0.969144
vt 0.722519 0.969144
vt 0.722519 0.969144
vt 0.722519 0.969144
vt 0.790510 0.344566
vt 0.722519 0.973050
vt 0.722519 0.973050
vt 0.722519 0.973050
vt 0.722519 0.973050
vt 0.790510 0.344566
vt 0.790510 0.344566
vt 0.790510 0.344566
vt 0.790510 0.344566
vt 0.790510 0.344566
vt 0.720326 0.970051
vt 0.720326 0.970051
vt 0.720326 0.970051
vt 0.720326 0.970051
vt 0.720326 0.970051
vt 0.720326 0.970051
vt 0.722519 0.967191
vt 0.722519 0.967191
vt 0.722519 0.967191
vt 0.722519 0.967191
vt 0.718613 0.969144
vt 0.718613 0.969144
vt 0.718613 0.969144
vt 0.718613 0.969144
vt 0.722519 0.969144
vt 0.722519 0.969144
vt 0.722519 0.969144
vt 0.722519 0.969144
vt 0.720326 0.970051
vt 0.720326 0.970051
vt 0.720326 0.970051
vt 0.720326 0.970051
vt 0.720326 0.970051
vt 0.720326 0.970051
vt 0.722519 0.967191
vt 0.722519 0.967191
vt 0.722519 0.967191
vt 0.722519 0.967191
vt 0.722519 0.969144
vt 0.722519 0.969144
vt 0.722519 0.969144
vt 0.722519 0.969144
vt 0.790510 0.344566
vt 0.790510 0.344566
vt 0.790510 0.344566
vt 0.790510 0.344566
vt 0.790510 0.344566
vt 0.790510 0.344566
vt 0.790510 0.344566
vt 0.790510 0.344566
vt 0.790510 0.344566
vt 0.790510 0.344566
vt 0.790510 0.344566
vt 0.790510 0.344566
vt 0.790510 0.344566
vt 0.790510 0.344566
vt 0.790510 0.344566
vt 0.722519 0.969144
vt 0.722519 0.969144
vt 0.790510 0.344566
vt 0.790510 0.344566
vt 0.790510 0.344566
vt 0.790510 0.344566
vt 0.790510 0.344566
vt 0.790510 0.344566
vt 0.790510 0.344566
vt 0.720326 0.970051
vt 0.720326 0.970051
vt 0.720326 0.970051
vt 0.720326 0.970051
vt 0.722519 0.969144
vt 0.722519 0.969144
vt 0.722519 0.969144
vt 0.722519 0.969144
vt 0.722519 0.969144
vt 0.722519 0.969144
vt 0.722519 0.969144
vt 0.722519 0.969144
vt 0.722519 0.969144
vt 0.722519 0.969144
vt 0.790510 0.344566
vt 0.596833 0.717423
vt 0.596833 0.717423
vt 0.596833 0.717423
vn 0.9967 -0.0792 -0.0161
vn -0.9988 0.0154 0.0471
vn 0.0000 0.9994 0.0358
vn 1.0000 0.0000 0.0018
vn 0.0000 -0.9994 -0.0358
vn -0.0000 0.9991 -0.0425
vn -0.9995 -0.0325 -0.0022
vn 0.0000 -0.9992 0.0399
vn 0.0000 0.0000 1.0000
vn 0.0000 0.0000 -1.0000
vn -0.0724 0.2009 0.9769
vn -1.0000 0.0080 0.0003
vn 0.2249 0.3220 -0.9196
vn 0.8749 0.4843 0.0033
vn -0.9082 0.4167 -0.0387
vn 0.0058 0.3000 0.9539
vn 0.0067 0.9567 0.2911
vn 0.0018 0.4655 -0.8851
vn 0.8890 0.4579 0.0029
vn -0.9540 0.2996 -0.0068
vn 0.0000 -0.9996 0.0267
vn 0.0000 -1.0000 0.0000
vn 0.0000 0.9996 -0.0267
vn 0.0000 1.0000 0.0000
vn -0.9993 0.0155 -0.0351
vn -0.9999 0.0146 0.0000
vn 0.9967 -0.0792 0.0167
vn 0.9972 -0.0749 -0.0047
vn 0.0000 -0.9983 -0.0588
vn -0.9995 -0.0325 0.0003
vn 0.0000 0.9983 0.0588
vn 0.0000 1.0000 -0.0091
vn 0.0133 0.9293 -0.3692
vn 0.9989 -0.0475 0.0046
vn 0.9994 -0.0355 -0.0000
vn 0.0056 0.0212 0.9998
vn 0.0005 0.0025 -1.0000
vn -0.9994 0.0360 -0.0012
vn -0.0132 0.9451 0.3264
vn -0.0012 -0.0145 0.9999
vn -0.0047 -0.0288 -0.9996
vn -0.9988 0.0487 -0.0048
vn 0.0830 0.3953 0.9148
vn 0.1870 0.2301 0.9550
vn 0.1110 0.3735 -0.9210
vn -0.0184 0.3733 -0.9275
vn -0.0054 -0.0292 0.9996
vn 0.0042 0.0116 -0.9999
vn 0.0196 0.9174 -0.3974
vn 1.0000 -0.0079 0.0000
vn -1.0000 0.0073 0.0003
vn -0.0047 1.0000 0.0001
vn 1.0000 -0.0097 0.0014
vn 1.0000 -0.0054 0.0000
vn -0.0103 -0.0436 0.9990
vn -0.0024 -0.0131 -0.9999
vn -1.0000 0.0056 -0.0003
vn 0.0002 0.0022 1.0000
vn 0.0057 0.0348 -0.9994
vn -1.0000 0.0098 -0.0015
vn -0.0011 -0.0175 0.9998
vn -0.0004 -0.0042 -1.0000
vn 0.0020 0.8726 -0.4885
vn 1.0000 -0.0072 0.0000
vn 0.0000 -1.0000 0.0091
vn -0.9995 -0.0323 0.0016
vn 1.0000 0.0000 -0.0003
vn 1.0000 -0.0001 -0.0012
usemtl Medieval
s off
f 37/1/1 12/2/1 3/3/1 34/4/1
f 40/5/2 36/6/2 7/7/2 14/8/2
f 34/9/3 3/10/3 7/11/3 36/12/3
f 41/13/4 1/14/4 10/15/4 43/16/4
f 40/5/5 14/8/5 12/2/5 37/1/5
f 112/17/6 109/18/6 43/19/6 44/20/6
f 42/21/7 44/22/7 15/23/7 5/24/7
f 110/25/8 111/26/8 42/21/8 41/13/8
f 9/27/9 16/28/9 6/29/9 2/30/9
f 1/14/10 5/24/10 15/23/10 10/15/10
f 3/3/10 12/2/10 14/8/10 7/7/10
f 4/31/9 8/32/9 13/33/9 11/34/9
f 18/35/11 56/36/11 55/37/11 48/38/11
f 45/39/12 48/40/12 22/41/12 66/42/12 23/43/12
f 19/44/13 58/45/13 57/46/13 51/47/13
f 17/48/14 19/44/14 51/47/14 50/49/14
f 20/50/15 18/51/15 48/52/15 45/53/15
f 26/54/16 53/55/16 54/56/16 52/57/16
f 68/58/17 67/59/17 30/60/17 29/61/17
f 27/62/18 60/63/18 59/64/18 47/65/18
f 25/66/19 27/62/19 47/65/19 46/67/19
f 28/68/20 26/69/20 52/70/20 49/71/20
f 13/72/21 39/73/21 38/74/21 11/75/21
f 39/73/22 40/5/22 37/1/22 38/74/22
f 4/76/23 33/77/23 35/78/23 8/79/23
f 33/77/24 34/9/24 36/12/24 35/78/24
f 13/72/25 8/80/25 35/81/25 39/73/25
f 39/73/26 35/81/26 36/6/26 40/5/26
f 11/75/27 38/74/27 33/82/27 4/83/27
f 38/74/28 37/1/28 34/4/28 33/82/28
f 1/14/29 41/13/29 42/21/29 5/24/29
f 6/84/30 16/85/30 112/86/30 111/26/30
f 15/87/31 44/20/31 43/19/31 10/88/31
f 112/17/32 16/89/32 9/90/32 109/18/32
f 24/91/33 23/92/33 66/93/33 65/94/33
f 63/95/34 64/96/34 32/97/34 68/98/34 29/99/34
f 46/100/35 47/101/35 64/96/35 63/95/35
f 52/102/36 54/103/36 46/100/36 63/95/36 62/104/36
f 51/105/37 57/106/37 45/39/37 23/43/37 24/107/37
f 49/108/38 52/102/38 62/104/38 61/109/38
f 65/94/39 66/93/39 22/110/39 21/111/39
f 48/40/40 55/112/40 50/113/40 21/114/40 22/41/40
f 47/101/41 59/115/41 49/108/41 61/109/41 64/96/41
f 61/109/42 62/104/42 30/116/42 67/117/42 31/118/42
f 54/119/43 53/120/43 25/66/43 46/67/43
f 55/121/44 56/122/44 17/48/44 50/49/44
f 57/123/45 58/124/45 20/125/45 45/126/45
f 59/127/46 60/128/46 28/129/46 49/130/46
f 62/104/47 63/95/47 29/99/47 30/116/47
f 64/96/48 61/109/48 31/118/48 32/97/48
f 32/131/49 31/132/49 67/59/49 68/58/49
f 50/113/50 51/105/50 24/107/50 65/133/50 21/114/50
f 70/134/11 96/135/11 95/136/11 88/137/11
f 85/138/51 88/139/51 74/140/51 106/141/51 75/142/51
f 71/143/13 98/144/13 97/145/13 91/146/13
f 69/147/14 71/143/14 91/146/14 90/148/14
f 72/149/15 70/150/15 88/151/15 85/152/15
f 78/153/16 93/154/16 94/155/16 92/156/16
f 108/157/52 107/158/52 82/159/52 81/160/52
f 79/161/18 100/162/18 99/163/18 87/164/18
f 77/165/19 79/161/19 87/164/19 86/166/19
f 80/167/20 78/168/20 92/169/20 89/170/20
f 76/171/33 75/172/33 106/173/33 105/174/33
f 103/175/53 104/176/53 84/177/53 108/178/53 81/179/53
f 86/180/54 87/181/54 104/176/54 103/175/54
f 92/182/55 94/183/55 86/180/55 103/175/55 102/184/55
f 91/185/56 97/186/56 85/138/56 75/142/56 76/187/56
f 89/188/57 92/182/57 102/184/57 101/189/57
f 105/174/39 106/173/39 74/190/39 73/191/39
f 88/139/58 95/192/58 90/193/58 73/194/58 74/140/58
f 87/181/59 99/195/59 89/188/59 101/189/59 104/176/59
f 101/189/60 102/184/60 82/196/60 107/197/60 83/198/60
f 94/199/43 93/200/43 77/165/43 86/166/43
f 95/201/44 96/202/44 69/147/44 90/148/44
f 97/203/45 98/204/45 72/205/45 85/206/45
f 99/207/46 100/208/46 80/209/46 89/210/46
f 102/184/61 103/175/61 81/179/61 82/196/61
f 104/176/62 101/189/62 83/198/62 84/177/62
f 84/211/63 83/212/63 107/158/63 108/157/63
f 90/193/64 91/185/64 76/187/64 105/213/64 73/194/64
f 110/25/65 2/214/65 6/84/65 111/26/65
f 111/26/66 112/86/66 44/22/66 42/21/66
f 2/214/67 110/25/67 109/215/67 9/216/67
f 109/215/68 110/25/68 41/13/68 43/16/68
o Item3_Collider_Cube.189
v -0.034143 0.000000 0.516146
v -0.034143 0.592950 0.516146
v -0.034144 0.000000 -0.493823
v -0.034144 0.592950 -0.493823
v 0.022082 0.000000 0.516146
v 0.022082 0.592950 0.516146
v 0.022081 0.000000 -0.493823
v 0.022081 0.592950 -0.493823
vt 0.375000 0.000000
vt 0.625000 0.000000
vt 0.625000 0.250000
vt 0.375000 0.250000
vt 0.625000 0.500000
vt 0.375000 0.500000
vt 0.625000 0.750000
vt 0.375000 0.750000
vt 0.625000 1.000000
vt 0.375000 1.000000
vt 0.125000 0.500000
vt 0.125000 0.750000
vt 0.875000 0.500000
vt 0.875000 0.750000
vn -1.0000 0.0000 0.0000
vn 0.0000 0.0000 -1.0000
vn 1.0000 0.0000 -0.0000
vn 0.0000 0.0000 1.0000
vn 0.0000 -1.0000 0.0000
vn 0.0000 1.0000 0.0000
usemtl COLLIDER
s off
f 113/217/69 114/218/69 116/219/69 115/220/69
f 115/220/70 116/219/70 120/221/70 119/222/70
f 119/222/71 120/221/71 118/223/71 117/224/71
f 117/224/72 118/223/72 114/225/72 113/226/72
f 115/227/73 119/222/73 117/224/73 113/228/73
f 120/221/74 116/229/74 114/230/74 118/223/74
